# xmcd
#
# Track frame offsets:
#	183
#	18418
#	30695
#	43983
#	57098
#	70783
#	82655
#	99740
#	111880
#	123665
#	133790
#	143525
#	163760
#	180660
#	193340
#	211410
#
# Disc length: 2989
#
# Revision: 3
# Processed by: cddbd v1.5.1PL0 Copyright (c) Steve Scherf et al.
# Submitted via: DiscPlay 4.0.4
# Normalized: r1:TSWAP
#
DISCID=e50bab10
DTITLE=Various Artist - Country and Western Supertracks Vol 2
DYEAR=1900
DGENRE=
TTITLE0=Micky Wolf - Lay Down Sally
TTITLE1=Nick Nixon - Rocking In Rosalee's Boat
TTITLE2=Foron Young - Gentle On My Mind
TTITLE3=Statler Brothers - Gharlotte's Web
TTITLE4=Tom T. Hall - Ballad Of Forty Dollars
TTITLE5=Larry G. Hudson - I'm Still In Love With You
TTITLE6=Bobby Bare - Sylvia's Mother
TTITLE7=Ferlin Husky - Out Of The Clear Blue Sky
TTITLE8=Dave Dudley - Six Days On The Road
TTITLE9=Bobby Bare - Help Me Make It Through The Night
TTITLE10=Ferlin Husky - Gone
TTITLE11=Johnny Cash - Let Him Roll
TTITLE12=The Everly Brothers - These Shoes
TTITLE13=Terry Bradshaw - I'm So Lonesome I Could Cry
TTITLE14=W.C. McCall - Convoy
TTITLE15=Jacky Ward - Let Me Be Your Man
EXTD=
EXTT0=
EXTT1=
EXTT2=
EXTT3=
EXTT4=
EXTT5=
EXTT6=
EXTT7=
EXTT8=
EXTT9=
EXTT10=
EXTT11=
EXTT12=
EXTT13=
EXTT14=
EXTT15=
PLAYORDER=
